<svg id="logo_visvim" xmlns="http://www.w3.org/2000/svg" width="92.714" height="20.845" viewBox="0 0 92.714 20.845">
  <g id="グループ_1" data-name="グループ 1" transform="translate(0 0)" fill="#fff">
    <path id="パス_1" data-name="パス 1" d="M255.8,397.179h5.089l2.3,5.962a10,10,0,0,1,.631,2.108,9.733,9.733,0,0,1,.654-2.108l2.3-5.962h4.95l-6.128,13.486h-3.719Z" transform="translate(-255.801 -390.341)"/>
    <path id="パス_2" data-name="パス 2" d="M320.176,372.793a2.607,2.607,0,0,1,2.627,2.625,2.626,2.626,0,1,1-2.627-2.625Zm-2.379,6.838h4.761v13.486H317.8Z" transform="translate(-300.235 -372.793)"/>
    <path id="パス_3" data-name="パス 3" d="M344.879,404.781a7.437,7.437,0,0,0,4.814,1.889c1.2,0,1.832-.413,1.832-1.123,0-1.124-1.1-1.124-2.872-1.587-2.792-.739-4.077-1.971-4.077-4.022,0-2.462,1.943-4.322,5.471-4.322a13.162,13.162,0,0,1,5.39,1.232l-.985,3.283a6.8,6.8,0,0,0-3.885-1.314c-1.093,0-1.639.357-1.639.984,0,.931,1.2.985,3.089,1.56,2.572.766,3.831,1.913,3.831,4.074,0,2.711-2.216,4.626-5.8,4.626a11.393,11.393,0,0,1-6.154-1.642Z" transform="translate(-319.192 -389.217)"/>
    <path id="パス_4" data-name="パス 4" d="M388.474,397.179h5.087l2.3,5.962a9.886,9.886,0,0,1,.631,2.108,9.6,9.6,0,0,1,.656-2.108l2.3-5.962h4.95l-6.129,13.486h-3.721Z" transform="translate(-351.271 -390.341)"/>
    <path id="パス_5" data-name="パス 5" d="M452.852,372.793a2.61,2.61,0,0,1,2.626,2.625,2.627,2.627,0,1,1-2.626-2.625Zm-2.381,6.838h4.76v13.486h-4.76Z" transform="translate(-395.705 -372.793)"/>
    <path id="パス_6" data-name="パス 6" d="M498.912,402.184c0-2.133-.383-3.093-1.943-3.093-2.217,0-2.379,1.78-2.379,4.734v5.717H490v-7.357c0-2.08-.33-3.093-1.917-3.093-2.241,0-2.406,1.807-2.406,4.734v5.717h-4.624V396.055h4.68v2.351a4.942,4.942,0,0,1,4.537-2.789q3.286,0,4.189,2.544a5.059,5.059,0,0,1,4.595-2.544,4.307,4.307,0,0,1,3.664,1.64,6.331,6.331,0,0,1,.9,4.023v8.26h-4.7Z" transform="translate(-417.887 -389.217)"/>
  </g>
  <g id="グループ_2" data-name="グループ 2" transform="translate(87.222 14.829)" fill="#fff">
    <path id="パス_7" data-name="パス 7" d="M572.568,432.063h-.715v1.069h-.682v-2.893h1.576a2.746,2.746,0,0,1,1.3.186.7.7,0,0,1,.308.662.574.574,0,0,1-.185.5,2.625,2.625,0,0,1-.748.318c.154-.06.034-.013.094.084.031.049.071.073.2.244l.745.9H573.7l-.537-.71C572.962,432.25,572.861,432.063,572.568,432.063Zm-.03-1.4h-.685v.995h.632a2.409,2.409,0,0,0,.959-.158.393.393,0,0,0,.027-.733A3.427,3.427,0,0,0,572.538,430.668Z" transform="translate(-569.961 -428.96)"/>
    <path id="パス_8" data-name="パス 8" d="M566.854,428.426a2.746,2.746,0,1,0,2.743-2.747A2.747,2.747,0,0,0,566.854,428.426Zm.568,0A2.178,2.178,0,1,1,569.6,430.6,2.18,2.18,0,0,1,567.422,428.426Z" transform="translate(-566.854 -425.678)"/>
  </g>
</svg>
